<svg id="Capa_1" data-name="Capa 1" xmlns="http://www.w3.org/2000/svg" xmlns:xlink="http://www.w3.org/1999/xlink" viewBox="0 0 434.94 336.8"><defs><style>.cls-1{fill:#fff;}.cls-2,.cls-9{fill:#ed5565;}.cls-3{fill:#2d2c56;}.cls-4{fill:#f7f7f7;}.cls-5{opacity:0.25;}.cls-6{fill:#d98e9d;}.cls-7{fill:#e0e4ed;}.cls-8{fill:#2d2b42;}.cls-9{opacity:0.3;}.cls-10{fill:#37354c;}.cls-11{fill:#eebcc5;}.cls-12{fill:#9b5342;}.cls-13{fill:#bcbace;}.cls-14{fill:url(#Degradado_sin_nombre_2);}</style><linearGradient id="Degradado_sin_nombre_2" x1="296.97" y1="466.16" x2="252.13" y2="467.22" gradientUnits="userSpaceOnUse"><stop offset="0" stop-color="#484ec2" stop-opacity="0"/><stop offset="1" stop-color="#444bcc" stop-opacity="0.5"/></linearGradient></defs><title>lgo</title><path class="cls-1" d="M481.29,227H130.71A12.72,12.72,0,0,0,118,239.72V481.15H494V239.72A12.72,12.72,0,0,0,481.29,227Z" transform="translate(-88.53 -227)"/><rect class="cls-1" y="249.81" width="434.94" height="14.67" rx="4.45" ry="4.45"/><path class="cls-2" d="M480.83,232.35H131.17a7.86,7.86,0,0,0-7.86,7.86V477.53H488.69V240.21A7.86,7.86,0,0,0,480.83,232.35Z" transform="translate(-88.53 -227)"/><rect class="cls-3" x="47.91" y="22.91" width="339.11" height="219.25"/><path class="cls-4" d="M307.9,242.21a1.9,1.9,0,1,1-1.9-1.91A1.9,1.9,0,0,1,307.9,242.21Z" transform="translate(-88.53 -227)"/><path class="cls-2" d="M342.56,483.24H269.44a1.74,1.74,0,0,0,0,3.48h73.12a1.74,1.74,0,0,0,0-3.48Z" transform="translate(-88.53 -227)"/><g class="cls-5"><rect class="cls-6" x="90.47" y="35" width="34" height="6"/><rect class="cls-1" x="59.76" y="35" width="14" height="6"/><rect class="cls-1" x="59.76" y="46" width="14" height="6"/><rect class="cls-1" x="59.76" y="59" width="14" height="6"/><rect class="cls-1" x="59.76" y="72" width="14" height="6"/><rect class="cls-1" x="59.76" y="85" width="14" height="6"/><rect class="cls-1" x="59.76" y="98" width="14" height="6"/><rect class="cls-7" x="131.47" y="35" width="114" height="6"/><rect class="cls-6" x="102.47" y="46" width="34" height="6"/><rect class="cls-7" x="143.47" y="46" width="114.01" height="6"/><rect class="cls-6" x="122.47" y="59" width="34" height="6"/><rect class="cls-7" x="163.47" y="59" width="114" height="6"/><rect class="cls-6" x="142.47" y="72" width="34" height="6"/><rect class="cls-7" x="183.47" y="72" width="114.01" height="6"/><rect class="cls-6" x="122.47" y="85" width="34" height="6"/><rect class="cls-7" x="163.47" y="85" width="174.01" height="6"/><rect class="cls-6" x="102.47" y="98" width="34" height="6"/><rect class="cls-7" x="143.47" y="98" width="74" height="6"/></g><g class="cls-5"><rect class="cls-6" x="90.47" y="115.02" width="34" height="6"/><rect class="cls-1" x="59.76" y="115.02" width="14" height="6"/><rect class="cls-1" x="59.76" y="126.02" width="14" height="6"/><rect class="cls-1" x="59.76" y="139.02" width="14" height="6"/><rect class="cls-1" x="59.76" y="152.02" width="14" height="6"/><rect class="cls-1" x="59.76" y="165.02" width="14" height="6"/><rect class="cls-1" x="59.76" y="178.02" width="14" height="6"/><rect class="cls-7" x="131.47" y="115.02" width="114" height="6"/><rect class="cls-6" x="102.47" y="126.02" width="34" height="6"/><rect class="cls-7" x="143.47" y="126.02" width="114.01" height="6"/><rect class="cls-6" x="122.47" y="139.02" width="34" height="6"/><rect class="cls-7" x="163.47" y="139.02" width="114" height="6"/><rect class="cls-6" x="90.47" y="195.02" width="34" height="6"/><rect class="cls-1" x="59.76" y="195.02" width="14" height="6"/><rect class="cls-1" x="59.76" y="206.02" width="14" height="6"/><rect class="cls-1" x="59.76" y="219.02" width="14" height="6"/><rect class="cls-7" x="131.47" y="195.02" width="114" height="6"/><rect class="cls-6" x="102.47" y="206.02" width="34" height="6"/><rect class="cls-7" x="143.47" y="206.02" width="114.01" height="6"/><rect class="cls-6" x="122.47" y="219.02" width="34" height="6"/><rect class="cls-7" x="163.47" y="219.02" width="114" height="6"/><rect class="cls-6" x="142.47" y="152.02" width="34" height="6"/><rect class="cls-7" x="183.47" y="152.02" width="174.01" height="6"/><rect class="cls-6" x="122.47" y="165.02" width="34" height="6"/><rect class="cls-7" x="163.47" y="165.02" width="114" height="6"/><rect class="cls-6" x="102.47" y="178.02" width="34" height="6"/><rect class="cls-7" x="143.47" y="178.02" width="114.01" height="6"/></g><path class="cls-8" d="M208,402.59" transform="translate(-88.53 -227)"/><rect class="cls-9" x="192.11" y="249.81" width="13.31" height="14.67"/><rect class="cls-9" x="238.52" y="250.56" width="13.31" height="13.92"/><path class="cls-10" d="M299.77,381l-5.41,6.63-2.7,5.65-2.48,7.09s-4.38,4.09-4.14,4.14-.25,5,.24,5.71,5.42,6.63,5.42,6.63,4.77,3.11,6.67,3.52,11.48,4.58,11.48,4.58l5.89-5.64-2.21-2.95s6.14-3.68,6.88-4.18,3.68-3.43,3.68-3.43a26.25,26.25,0,0,0-.55-4.24c-.43-1.66-3.38-9.76-3.38-9.76s-3.92-5.65-4.42-6.63-2.7-4.18-2.7-4.18Z" transform="translate(-88.53 -227)"/><path class="cls-2" d="M289.86,416.73h29.46a4.09,4.09,0,0,1,4.09,4.09V459.1a0,0,0,0,1,0,0H285.76a0,0,0,0,1,0,0V420.82A4.09,4.09,0,0,1,289.86,416.73Z" transform="translate(-91.85 -224.67) rotate(-0.44)"/><path class="cls-10" d="M297.33,416.82s2.84,3.28,2.84,10.15.24,19.53.24,19.53l8.44,0V426.64a15.59,15.59,0,0,1,4.69-12l-9.21.24Z" transform="translate(-88.53 -227)"/><path class="cls-11" d="M304.18,424.81h0a4.58,4.58,0,0,1-4.62-4.55l-.11-13.92a.61.61,0,0,1,.61-.62l7.94-.06a.61.61,0,0,1,.62.61l.1,13.92A4.58,4.58,0,0,1,304.18,424.81Z" transform="translate(-88.53 -227)"/><path class="cls-12" d="M320.11,403.13c0-.16,0-.31,0-.47a16.48,16.48,0,0,0-.5-4v-1.78A15.93,15.93,0,0,0,303.73,381h0a15.93,15.93,0,0,0-15.88,15.88v6.25Z" transform="translate(-88.53 -227)"/><path class="cls-11" d="M318.4,398.7v-1.53a14.69,14.69,0,0,0-14.65-14.65h0a14.69,14.69,0,0,0-14.64,14.65v6a5,5,0,0,0,.13,1.17,14.88,14.88,0,1,0,29.16-5.64Z" transform="translate(-88.53 -227)"/><path class="cls-10" d="M299.25,405a1.13,1.13,0,1,1-1.12-1.13A1.12,1.12,0,0,1,299.25,405Z" transform="translate(-88.53 -227)"/><path class="cls-10" d="M310,405a1.13,1.13,0,1,1-1.12-1.13A1.12,1.12,0,0,1,310,405Z" transform="translate(-88.53 -227)"/><path class="cls-11" d="M293.33,404.48a4.15,4.15,0,1,1-4.15-4.14A4.15,4.15,0,0,1,293.33,404.48Z" transform="translate(-88.53 -227)"/><path class="cls-11" d="M322.54,404.48a4.14,4.14,0,1,1-4.14-4.14A4.14,4.14,0,0,1,322.54,404.48Z" transform="translate(-88.53 -227)"/><path class="cls-13" d="M304.88,475.94l-18.46,8.66,3.42,56.27h-6.61l-13.36-57.7a6.08,6.08,0,0,1,2.74-6.56l17.46-10.69Z" transform="translate(-88.53 -227)"/><path class="cls-6" d="M289.09,401.76a2.74,2.74,0,0,0,0,5.45Z" transform="translate(-88.53 -227)"/><path class="cls-6" d="M318.12,401.76a2.74,2.74,0,0,1,0,5.45Z" transform="translate(-88.53 -227)"/><rect class="cls-10" x="211.79" y="201.33" width="8.51" height="45.35"/><path class="cls-10" d="M314,398.7c.4,1.26,1,2.71,2.24,3.06a3.64,3.64,0,0,0,2.9-.85,2.12,2.12,0,0,0,1-1.3,2.23,2.23,0,0,0-.39-1.35,23.88,23.88,0,0,0-3-4.65c-1.09-1.22-3.06-3.22-4.22-1.11C311.81,393.93,313.59,397.27,314,398.7Z" transform="translate(-88.53 -227)"/><path class="cls-10" d="M315.58,389.32A19.31,19.31,0,0,0,304,385.48l.17-2.63c-4.3,0-8.46,4-11.69,6.43,2.82,3.21,6.95,6.24,11.55,6.24S312.76,392.5,315.58,389.32Z" transform="translate(-88.53 -227)"/><path class="cls-2" d="M265.09,451.42a3.48,3.48,0,0,1-.49-2.8c2.13-8.47,17.27-28.41,17.93-29.24,1-1.25,6.18-2.38,6.18-2.38l.6,13.68-13.68,16.08a3.5,3.5,0,0,0-.47,3.8l10.81,22-5.7,1.6Z" transform="translate(-88.53 -227)"/><path class="cls-13" d="M314.44,465.92l17.46,10.69a6.08,6.08,0,0,1,2.74,6.56l-13.36,57.7h-6.61l3.42-56.27-18.45-8.66Z" transform="translate(-88.53 -227)"/><path class="cls-2" d="M341.68,451a3.66,3.66,0,0,0,.44-2.53c-1.66-8.28-15.21-28.21-15.89-29.05-1-1.25-6.18-2.38-6.18-2.38l-.59,13.68,11.76,15.7a3.81,3.81,0,0,1,.49,3.67l-8.91,22.47,5.7,1.6Z" transform="translate(-88.53 -227)"/><path class="cls-10" d="M293.59,398.7c-.39,1.26-1,2.71-2.23,3.06a3.62,3.62,0,0,1-2.9-.85,2.17,2.17,0,0,1-1-1.3,2.3,2.3,0,0,1,.39-1.35,23.88,23.88,0,0,1,3-4.65c1.1-1.22,3.06-3.22,4.22-1.11C295.83,393.93,294,397.27,293.59,398.7Z" transform="translate(-88.53 -227)"/><path class="cls-11" d="M288.55,472.73a4.77,4.77,0,1,1-4.77-4.77A4.77,4.77,0,0,1,288.55,472.73Z" transform="translate(-88.53 -227)"/><path class="cls-2" d="M317,385.39c-2-5.12-12.88-6.85-13-6.88h0c-.14,0-11.07,1.76-13,6.88S283.08,405,283.33,409s7.37,7.86,7.37,7.86h6.63s-9.83-6.63-10.81-9.58,2.7-6.14,3.66-6.9a59.28,59.28,0,0,1,10.73-13.74,4.5,4.5,0,0,1,6.09,0,59.56,59.56,0,0,1,10.73,13.74c1,.76,4.64,4,3.66,6.9s-9.79,9.53-9.79,9.53l5.61.05s7.12-3.93,7.37-7.86S319,390.54,317,385.39Z" transform="translate(-88.53 -227)"/><path class="cls-11" d="M330.16,473.59a4.77,4.77,0,1,0-5.05,4.47A4.78,4.78,0,0,0,330.16,473.59Z" transform="translate(-88.53 -227)"/><path class="cls-2" d="M323.14,452v20.5s-11.58,4.33-13.23,4.1-1.66-18.22-1.66-18.22l2.13-5.47Z" transform="translate(-88.53 -227)"/><path class="cls-2" d="M286,452v20.5s11.57,4.33,13.23,4.1,1.65-18.22,1.65-18.22l-2.12-5.47Z" transform="translate(-88.53 -227)"/><path class="cls-3" d="M289.84,540.87l.91,8.43s-8.54,14.14-11.91,14.48-1.91-5.62,0-8.34,5.69-8.45,5.69-8.45l1.44-6.12Z" transform="translate(-88.53 -227)"/><path class="cls-3" d="M315.86,540.87,315,549.3s8.54,14.14,11.91,14.48,1.91-5.62,0-8.34-5.69-8.45-5.69-8.45l-1.43-6.12Z" transform="translate(-88.53 -227)"/><path class="cls-1" d="M283.23,478.34h43.29a3.54,3.54,0,0,0,3.45-2.73L333.62,460a4.91,4.91,0,0,0-4.88-5.79l-49.59.38a4.92,4.92,0,0,0-4.79,5.86L279.9,476A3.53,3.53,0,0,0,283.23,478.34Z" transform="translate(-88.53 -227)"/><path class="cls-14" d="M309.71,454.31l-30.56.24a4.92,4.92,0,0,0-4.79,5.86L279.9,476a3.53,3.53,0,0,0,3.33,2.35H291Z" transform="translate(-88.53 -227)"/><ellipse class="cls-2" cx="214.95" cy="241.29" rx="4.36" ry="4.03"/></svg>